# xmcd
#
# Track frame offsets: 
#        150
#        13451
#        30915
#        48820
#        66506
#        89033
#        104311
#        118447
#        134661
#        153535
#
# Disc length: 2255 seconds
#
# Revision: 0
# Processed by: cddbd v1.5.2PL0 Copyright (c) Steve Scherf et al.
# Submitted via: ExactAudioCopy v1.1
#
DISCID=9208cd0a
DTITLE=Downchild - Something I've Done
DYEAR=2017
DGENRE=Rock
TTITLE0=Albany, Albany
TTITLE1=Worried About The World
TTITLE2=Can't Get Mad At You
TTITLE3=Mississippi Woman, Mississauga Man
TTITLE4=Take A Piece Of My Heart
TTITLE5=Mailbox Money
TTITLE6=She Thinks I Do
TTITLE7=Something I've Done
TTITLE8=Into The Fire
TTITLE9=Evelyn
EXTD=
EXTT0=
EXTT1=
EXTT2=
EXTT3=
EXTT4=
EXTT5=
EXTT6=
EXTT7=
EXTT8=
EXTT9=
PLAYORDER=
